<svg width="1536" height="640" viewBox="0 0 1536 640" fill="none" xmlns="http://www.w3.org/2000/svg">
<defs>
<linearGradient id="bg" x1="98" y1="34" x2="1412" y2="640" gradientUnits="userSpaceOnUse"><stop stop-color="#184A90"/><stop offset="0.55" stop-color="#173D73"/><stop offset="1" stop-color="#102441"/></linearGradient>
<filter id="blur" x="-20%" y="-20%" width="140%" height="140%"><feGaussianBlur stdDeviation="44"/></filter>
</defs>
<rect width="1536" height="640" rx="52" fill="url(#bg)"/>
<circle cx="210" cy="94" r="260" fill="#6EE7FF" fill-opacity="0.18" filter="url(#blur)"/>
<circle cx="1260" cy="120" r="230" fill="#7AA2FF" fill-opacity="0.16" filter="url(#blur)"/>
<circle cx="1140" cy="520" r="280" fill="#36CFFF" fill-opacity="0.14" filter="url(#blur)"/>
<g opacity="0.15" stroke="#C7EBFF">
<path d="M96 92H1440"/><path d="M96 164H1440"/><path d="M96 236H1440"/><path d="M96 308H1440"/><path d="M96 380H1440"/><path d="M96 452H1440"/><path d="M96 524H1440"/>
<path d="M128 54V586"/><path d="M256 54V586"/><path d="M384 54V586"/><path d="M512 54V586"/><path d="M640 54V586"/><path d="M768 54V586"/><path d="M896 54V586"/><path d="M1024 54V586"/><path d="M1152 54V586"/><path d="M1280 54V586"/><path d="M1408 54V586"/>
</g>
<rect x="52" y="52" width="1432" height="536" rx="40" fill="white" fill-opacity="0.04" stroke="#D3F1FF" stroke-opacity="0.22"/>
<rect x="86" y="88" width="212" height="34" rx="17" fill="#D7F5FF" fill-opacity="0.12" stroke="#D7F5FF" stroke-opacity="0.25"/>
<rect x="96" y="100" width="96" height="10" rx="5" fill="#DFF8FF" fill-opacity="0.68"/>
<rect x="86" y="474" width="460" height="48" rx="24" fill="#D7F5FF" fill-opacity="0.08" stroke="#D7F5FF" stroke-opacity="0.18"/>
<g opacity="0.9">
<circle cx="1230" cy="258" r="118" fill="#87DFFF" fill-opacity="0.12" stroke="#D5F6FF" stroke-opacity="0.7" stroke-width="4"/>
<path d="M1230 194V262L1274 290" stroke="#EAFBFF" stroke-width="12" stroke-linecap="round" stroke-linejoin="round"/>
</g>
</svg>